<?xml version="1.0" encoding="UTF-8"?>
<svg width="60px" height="60px" viewBox="0 0 60 60" version="1.1" xmlns="http://www.w3.org/2000/svg" xmlns:xlink="http://www.w3.org/1999/xlink">
    <title>画板</title>
    <g id="画板" stroke="none" stroke-width="1" fill="none" fill-rule="evenodd">
        <rect id="矩形" fill="#FA7555" x="0" y="0" width="60" height="60" rx="13"></rect>
        <g id="石榴" transform="translate(10.000000, 4.000000)" fill="#FFFFFF" fill-rule="nonzero">
            <path d="M26.8614841,13.2515702 C26.8764504,13.1586465 26.895086,13.0663439 26.9173479,12.974876 C27.3572749,10.6105785 28.9214599,7.57487601 29.0970316,7.23867765 C29.5160097,6.55041317 29.3673722,5.58049585 28.73691,4.95173552 C28.1144282,4.33289252 27.2525304,4.1871074 26.4883942,4.56793389 L24.2817761,5.66479336 L22.5968856,1.27735538 C22.3694404,0.510743825 21.6372262,0 20.7503893,0 C19.859562,0 19.1243552,0.514710769 18.9009002,1.28628096 L17.3008029,5.65685947 L14.5106082,4.27041322 C13.7454744,3.89057849 12.8845742,4.03735535 12.26309,4.65421485 L12.1383942,4.8059504 C11.6994647,5.46148759 11.6396107,6.22016526 11.9757908,6.88958678 L12.0236739,6.97884298 C12.5663503,7.96859502 14.2193187,10.9795041 14.4836739,12.2935537 L14.5155961,12.4135537 C14.5425304,12.4928925 14.5864234,12.7090909 14.619343,13.0234711 C10.9562773,13.6175207 7.52265205,15.4175206 4.86912408,18.153719 C1.72878343,21.3798347 0,25.6046281 0,30.0495868 L0,30.7438016 C0,33.1963636 0.46586375,35.4684297 1.37464722,37.4757025 C2.24555121,39.5195098 3.50372301,41.3777222 5.08060829,42.9490909 C6.65988194,44.5148502 8.5268761,45.7645819 10.5801946,46.6304132 C12.7429197,47.5517355 14.9605109,48 17.3576642,48 L23.6423358,48 C25.6863503,48 27.7523114,47.6171901 30.4138199,46.732562 C32.4696448,45.8667489 34.3387835,44.6159319 35.9193917,43.0482644 C37.4943576,41.4782226 38.7514377,39.6221421 39.6223601,37.5808264 C40.5490997,35.4307438 41,33.2261157 41,30.8429752 L41,30.1487603 C41,21.8271074 34.9896594,14.7342148 26.8614841,13.2515702 L26.8614841,13.2515702 Z M39.0048662,30.8439669 C39.0048662,32.9533884 38.606837,34.9021487 37.786837,36.8062809 C37.0159117,38.6135565 35.9030974,40.2568601 34.5088321,41.6469421 C33.1297536,43.0164599 31.5014316,44.1129384 29.7105353,44.8780165 C27.3333333,45.6654545 25.4618978,46.0175207 23.6423358,46.0175207 L17.3576642,46.0175207 C15.2358394,46.0175207 13.2756205,45.6218182 11.3602919,44.8066115 C9.54238963,44.0401928 7.88942353,42.9338835 6.49116787,41.5477686 C5.09180718,40.1512647 3.97585363,38.5000825 3.2041849,36.6842975 C2.40214112,34.9120661 1.99513383,32.913719 1.99513383,30.7447934 L1.99513383,30.0505785 C1.99513383,26.1233058 3.52540149,22.387438 6.30462286,19.5332231 C8.86038926,16.8981818 12.2201946,15.2429752 15.766545,14.8720661 L16.6603649,14.778843 L16.6603649,13.886281 C16.6603649,13.1028099 16.5705839,12.3163636 16.429927,11.8512396 C16.1296594,10.4538842 14.9176156,8.11735533 13.8452311,6.15768591 L18.4120925,8.42876033 L20.7513868,2.03404954 L23.2044039,8.42082644 L27.283455,6.41157025 C26.9392944,7.07603308 25.4289781,10.0849587 24.9700973,12.5553719 C24.9110834,12.8102715 24.8684345,13.0686441 24.8424088,13.3289256 C24.8214598,13.503471 24.800511,13.6879338 24.7596107,13.8912397 L24.5501216,14.9385124 L25.6155231,15.0694215 C33.2489051,16.0056198 39.0048662,22.4895867 39.0048662,30.1517355 L39.0048662,30.8439669 L39.0048662,30.8439669 Z" id="形状"></path>
            <path d="M28,39.3407703 L28.9572723,41 C33.6529996,37.3833977 33.9879154,33.3410196 34,33.1705098 L32.279672,33 C32.2684505,33.1336159 31.949072,36.2985168 28,39.3407703 L28,39.3407703 Z" id="路径"></path>
        </g>
    </g>
</svg>